<svg xmlns="http://www.w3.org/2000/svg" width="120" height="120" viewBox="0 0 120 120" fill="none">
    <path d="M60.865 10.6541C56.9406 6.38451 50.2042 6.38452 46.2798 10.6541L29.9966 28.3697C29.4318 28.9842 28.4608 28.9789 27.9027 28.3584L12.3366 11.0501C7.99982 6.22799 0.000976562 9.29574 0.000976562 15.7812V81.1411C0.000976562 88.1745 5.70268 93.8762 12.7361 93.8762H94.4087C101.442 93.8762 107.144 88.1745 107.144 81.1411V16.254C107.144 9.80611 99.2232 6.71896 94.8598 11.4662L79.2774 28.4193C78.7168 29.0293 77.7544 29.0293 77.1938 28.4193L60.865 10.6541Z"
          fill="#F2F4F7"/>
    <circle cx="89.999" cy="82.5481" r="30" fill="#98A2B3"/>
    <path d="M79.2209 71.7676C80.8384 70.1501 83.4609 70.1501 85.0784 71.7676L90.0012 76.6904L94.9221 71.7705C96.5395 70.1531 99.162 70.1533 100.78 71.7705C102.397 73.388 102.397 76.0104 100.78 77.6279L95.8586 82.5478L100.78 87.4687C102.397 89.0862 102.397 91.7086 100.78 93.3261C99.162 94.9436 96.5396 94.9436 94.9221 93.3261L90.0012 88.4052L85.0784 93.3301C83.4609 94.9472 80.8384 94.9473 79.2209 93.3301C77.6034 91.7126 77.6034 89.0892 79.2209 87.4717L84.1438 82.5478L79.2209 77.625C77.6035 76.0075 77.6035 73.385 79.2209 71.7676Z"
          fill="#F2F4F7"/>
</svg>